<?xml version="1.0" standalone="no"?>
<!DOCTYPE svg PUBLIC "-//W3C//DTD SVG 20010904//EN"
 "http://www.w3.org/TR/2001/REC-SVG-20010904/DTD/svg10.dtd">
<svg version="1.0" xmlns="http://www.w3.org/2000/svg"
 width="500.000000pt" height="500.000000pt" viewBox="0 0 500.000000 500.000000"
 preserveAspectRatio="xMidYMid meet">
<metadata>
Created by potrace 1.11, written by Peter Selinger 2001-2013
</metadata>
<g transform="translate(0.000000,500.000000) scale(0.100000,-0.100000)"
fill="#000000" stroke="none">
<path d="M334 3856 l-34 -34 0 -546 c0 -401 3 -552 12 -571 25 -54 30 -55 501
-55 l434 0 147 148 146 147 0 439 0 438 -34 34 -34 34 -552 0 -552 0 -34 -34z"/>
<path d="M1975 3881 c-11 -5 -29 -19 -40 -31 -19 -22 -20 -36 -20 -582 l0
-560 33 -29 32 -29 438 0 437 0 148 148 147 147 0 437 0 438 -29 32 -29 33
-549 2 c-301 1 -557 -2 -568 -6z"/>
<path d="M3494 3856 l-34 -34 0 -546 c0 -401 3 -552 12 -571 25 -54 30 -55
500 -55 l433 0 148 148 147 147 0 439 0 438 -34 34 -34 34 -552 0 -552 0 -34
-34z"/>
<path d="M365 2341 c-11 -5 -29 -19 -40 -31 -19 -21 -20 -38 -23 -569 -2 -532
-2 -547 18 -579 11 -18 32 -37 46 -42 15 -6 199 -10 452 -10 l427 0 148 148
148 148 -3 442 -3 442 -28 27 -27 28 -548 2 c-301 1 -556 -2 -567 -6z"/>
<path d="M1948 2321 l-33 -29 0 -561 0 -561 28 -27 27 -28 442 -3 442 -3 148
148 148 148 0 438 0 439 -34 34 -34 34 -551 0 -551 0 -32 -29z"/>
<path d="M3494 2316 l-34 -34 0 -552 0 -552 34 -34 34 -34 439 0 438 0 148
148 148 148 -3 443 -3 443 -33 29 -32 29 -551 0 -551 0 -34 -34z"/>
</g>
</svg>
